<?xml version="1.0" encoding="UTF-8"?>
<!DOCTYPE svg PUBLIC "-//W3C//DTD SVG 1.1//EN" "http://www.w3.org/Graphics/SVG/1.1/DTD/svg11.dtd">
<svg xmlns="http://www.w3.org/2000/svg" version="1.1" width="176px" height="69px" style="shape-rendering:geometricPrecision; text-rendering:geometricPrecision; image-rendering:optimizeQuality; fill-rule:evenodd; clip-rule:evenodd" xmlns:xlink="http://www.w3.org/1999/xlink">
<g><path style="opacity:0.882" fill="#c51b1e" d="M 80.5,-0.5 C 85.1667,-0.5 89.8333,-0.5 94.5,-0.5C 111.847,4.15757 129.514,7.82424 147.5,10.5C 147.5,18.8333 147.5,27.1667 147.5,35.5C 127.57,39.8154 107.57,43.8154 87.5,47.5C 67.359,44.1307 47.359,40.1307 27.5,35.5C 27.5,27.1667 27.5,18.8333 27.5,10.5C 45.4394,7.59381 63.1061,3.92714 80.5,-0.5 Z M 31.5,13.5 C 30.899,20.2887 31.5657,26.7887 33.5,33C 32.552,33.4828 31.552,33.6495 30.5,33.5C 30.176,26.6457 30.5093,19.979 31.5,13.5 Z M 143.5,13.5 C 144.491,19.979 144.824,26.6457 144.5,33.5C 143.448,33.6495 142.448,33.4828 141.5,33C 143.434,26.7887 144.101,20.2887 143.5,13.5 Z"/></g>
<g><path style="opacity:1" fill="#f9e4e4" d="M 89.5,16.5 C 92.1873,16.3359 94.854,16.5026 97.5,17C 99.0368,18.1096 99.7035,19.6096 99.5,21.5C 97.8333,21.5 96.1667,21.5 94.5,21.5C 94.719,20.325 94.3857,19.325 93.5,18.5C 92.1667,21.5 92.1667,24.5 93.5,27.5C 94.3857,26.675 94.719,25.675 94.5,24.5C 96.1667,24.5 97.8333,24.5 99.5,24.5C 99.7135,26.1439 99.3802,27.6439 98.5,29C 95.634,30.4568 92.634,30.7901 89.5,30C 88.1943,25.5006 88.1943,21.0006 89.5,16.5 Z"/></g>
<g><path style="opacity:1" fill="#fcf3f3" d="M 47.5,29.5 C 46.1667,29.5 44.8333,29.5 43.5,29.5C 43.8128,25.9581 43.4794,22.6248 42.5,19.5C 40.5977,22.3373 39.931,25.6707 40.5,29.5C 39.1667,29.5 37.8333,29.5 36.5,29.5C 36.5,26.1667 36.5,22.8333 36.5,19.5C 37.3171,17.5221 38.8171,16.5221 41,16.5C 45.23,16.4547 49.3966,16.9547 53.5,18C 54.4601,21.73 54.7935,25.5633 54.5,29.5C 53.1667,29.5 51.8333,29.5 50.5,29.5C 50.5,26.1667 50.5,22.8333 50.5,19.5C 49.5,19.5 48.5,19.5 47.5,19.5C 47.5,22.8333 47.5,26.1667 47.5,29.5 Z"/></g>
<g><path style="opacity:1" fill="#fae7e7" d="M 57.5,16.5 C 60.5,16.5 63.5,16.5 66.5,16.5C 66.5,17.5 66.5,18.5 66.5,19.5C 59.8333,20.1667 59.8333,20.8333 66.5,21.5C 66.5,22.5 66.5,23.5 66.5,24.5C 64.8333,24.5 63.1667,24.5 61.5,24.5C 61.5,25.5 61.5,26.5 61.5,27.5C 63.1667,27.5 64.8333,27.5 66.5,27.5C 66.5,28.5 66.5,29.5 66.5,30.5C 63.5,30.5 60.5,30.5 57.5,30.5C 57.5,25.8333 57.5,21.1667 57.5,16.5 Z"/></g>
<g><path style="opacity:1" fill="#fbeded" d="M 68.5,16.5 C 71.5184,16.3354 74.5184,16.502 77.5,17C 79.0454,18.8219 79.712,20.9886 79.5,23.5C 79.712,26.0114 79.0454,28.1781 77.5,30C 74.5184,30.498 71.5184,30.6646 68.5,30.5C 68.5,25.8333 68.5,21.1667 68.5,16.5 Z"/></g>
<g><path style="opacity:1" fill="#fcf3f4" d="M 81.5,16.5 C 82.8333,16.5 84.1667,16.5 85.5,16.5C 85.5,21.1667 85.5,25.8333 85.5,30.5C 84.1667,30.5 82.8333,30.5 81.5,30.5C 81.5,25.8333 81.5,21.1667 81.5,16.5 Z"/></g>
<g><path style="opacity:1" fill="#f9e0e0" d="M 104.5,16.5 C 106.467,16.2606 108.301,16.5939 110,17.5C 111.684,21.7155 112.851,26.0488 113.5,30.5C 112.167,30.5 110.833,30.5 109.5,30.5C 109.5,29.5 109.5,28.5 109.5,27.5C 108.167,27.5 106.833,27.5 105.5,27.5C 105.5,28.5 105.5,29.5 105.5,30.5C 104.167,30.5 102.833,30.5 101.5,30.5C 102.497,25.8394 103.497,21.1727 104.5,16.5 Z"/></g>
<g><path style="opacity:1" fill="#fae8e8" d="M 116.5,16.5 C 119.579,16.2601 122.579,16.5934 125.5,17.5C 125.422,21.842 126.089,26.1754 127.5,30.5C 125.833,30.5 124.167,30.5 122.5,30.5C 121.833,23.8333 121.167,23.8333 120.5,30.5C 119.167,30.5 117.833,30.5 116.5,30.5C 116.5,25.8333 116.5,21.1667 116.5,16.5 Z"/></g>
<g><path style="opacity:1" fill="#ecb1b3" d="M 138.5,17.5 C 135.833,17.5 133.167,17.5 130.5,17.5C 130.5,21.5 130.5,25.5 130.5,29.5C 133.167,29.5 135.833,29.5 138.5,29.5C 135.713,30.4767 132.713,30.81 129.5,30.5C 129.5,25.8333 129.5,21.1667 129.5,16.5C 132.713,16.19 135.713,16.5233 138.5,17.5 Z"/></g>
<g><path style="opacity:1" fill="#fcf2f2" d="M 138.5,17.5 C 137.322,18.9986 135.655,19.9986 133.5,20.5C 135.045,21.4519 136.712,21.7852 138.5,21.5C 138.5,22.5 138.5,23.5 138.5,24.5C 136.833,24.5 135.167,24.5 133.5,24.5C 133.5,25.5 133.5,26.5 133.5,27.5C 135.781,27.0773 137.448,27.744 138.5,29.5C 135.833,29.5 133.167,29.5 130.5,29.5C 130.5,25.5 130.5,21.5 130.5,17.5C 133.167,17.5 135.833,17.5 138.5,17.5 Z"/></g>
<g><path style="opacity:1" fill="#ce3f3c" d="M 72.5,19.5 C 73.5,19.5 74.5,19.5 75.5,19.5C 75.5,22.1667 75.5,24.8333 75.5,27.5C 74.5,27.5 73.5,27.5 72.5,27.5C 72.5,24.8333 72.5,22.1667 72.5,19.5 Z"/></g>
<g><path style="opacity:1" fill="#cd3c39" d="M 120.5,19.5 C 123.957,19.6672 124.29,20.6672 121.5,22.5C 120.614,21.675 120.281,20.675 120.5,19.5 Z"/></g>
<g><path style="opacity:1" fill="#dc7677" d="M 36.5,19.5 C 36.5,22.8333 36.5,26.1667 36.5,29.5C 37.8333,29.5 39.1667,29.5 40.5,29.5C 39.0813,30.4511 37.4147,30.7845 35.5,30.5C 35.185,26.6286 35.5184,22.9619 36.5,19.5 Z"/></g>
<g><path style="opacity:1" fill="#db6f71" d="M 42.5,19.5 C 43.4794,22.6248 43.8128,25.9581 43.5,29.5C 44.8333,29.5 46.1667,29.5 47.5,29.5C 46.0813,30.4511 44.4147,30.7845 42.5,30.5C 42.5,26.8333 42.5,23.1667 42.5,19.5 Z"/></g>
<g><path style="opacity:0.586" fill="#333390" d="M 111.5,61.5 C 111.167,61.5 110.833,61.5 110.5,61.5C 109.735,60.3398 108.735,59.3398 107.5,58.5C 106.614,59.325 106.281,60.325 106.5,61.5C 102.838,62.3629 100.672,61.0296 100,57.5C 99.51,58.7932 99.3433,60.1266 99.5,61.5C 98.5,61.5 97.5,61.5 96.5,61.5C 96.5,60.8333 96.1667,60.5 95.5,60.5C 93.8333,60.5 92.1667,60.5 90.5,60.5C 87.262,62.1337 85.0953,61.1337 84,57.5C 83.5172,58.448 83.3505,59.448 83.5,60.5C 82.8333,60.5 82.5,60.8333 82.5,61.5C 80.0428,61.2077 77.3761,61.2077 74.5,61.5C 74.5,57.8333 74.5,54.1667 74.5,50.5C 77.6721,50.9281 80.6721,51.0948 83.5,51C 84.8491,51.7724 85.6824,52.9391 86,54.5C 86.2189,53.062 86.7189,51.7287 87.5,50.5C 92.1979,50.7452 96.8645,50.9118 101.5,51C 102.516,51.5194 103.182,52.3527 103.5,53.5C 102.863,54.782 102.863,55.782 103.5,56.5C 107.165,48.3258 109.998,48.6592 112,57.5C 112.497,55.1902 112.663,52.8568 112.5,50.5C 113.5,50.5 114.5,50.5 115.5,50.5C 115.041,54.0733 116.041,57.0733 118.5,59.5C 118.291,60.086 117.957,60.586 117.5,61C 115.314,61.0613 113.314,61.2279 111.5,61.5 Z M 77.5,54.5 C 78.209,53.596 79.209,53.2627 80.5,53.5C 80.6602,55.1992 80.4935,56.8659 80,58.5C 79.8784,56.563 79.045,55.2297 77.5,54.5 Z M 92.5,54.5 C 93.5676,53.5655 94.901,53.2322 96.5,53.5C 96.3364,59.1667 96.0031,59.5 95.5,54.5C 94.5,54.5 93.5,54.5 92.5,54.5 Z"/></g>
<g><path style="opacity:0.827" fill="#313293" d="M 175.5,57.5 C 175.5,58.8333 175.5,60.1667 175.5,61.5C 173.5,61.5 171.5,61.5 169.5,61.5C 168.833,61.5 168.167,61.5 167.5,61.5C 166.246,57.69 165.246,57.69 164.5,61.5C 162.64,60.9285 160.973,60.9285 159.5,61.5C 159.5,60.8333 159.167,60.5 158.5,60.5C 158.5,58.1667 158.5,55.8333 158.5,53.5C 157.5,53.5 156.5,53.5 155.5,53.5C 155.5,55.8333 155.5,58.1667 155.5,60.5C 154.833,60.5 154.5,60.8333 154.5,61.5C 152.933,60.3192 152.099,58.6526 152,56.5C 150.989,57.3366 149.822,57.67 148.5,57.5C 148.5,58.8333 148.5,60.1667 148.5,61.5C 147.5,61.5 146.5,61.5 145.5,61.5C 145.214,59.0673 144.548,59.0673 143.5,61.5C 142.833,61.5 142.167,61.5 141.5,61.5C 139.983,61.4894 138.816,60.8228 138,59.5C 137.005,60.0659 136.172,60.7326 135.5,61.5C 134.833,61.5 134.167,61.5 133.5,61.5C 133.167,61.5 132.833,61.5 132.5,61.5C 131.828,60.7326 130.995,60.0659 130,59.5C 127.641,62.0376 126.141,61.3709 125.5,57.5C 124.852,59.1492 123.852,60.4825 122.5,61.5C 121.167,57.8333 121.167,54.1667 122.5,50.5C 123.852,51.5175 124.852,52.8508 125.5,54.5C 126.141,50.6291 127.641,49.9624 130,52.5C 132.795,49.887 135.629,49.887 138.5,52.5C 140.173,50.9137 142.173,50.2471 144.5,50.5C 144.64,52.1238 143.973,53.2904 142.5,54C 143.416,54.3742 144.25,54.8742 145,55.5C 145.494,53.8659 145.66,52.1992 145.5,50.5C 152.409,50.759 159.242,50.759 166,50.5C 166.772,50.6448 167.439,50.9781 168,51.5C 169.941,59.3752 170.774,59.0419 170.5,50.5C 171.5,50.5 172.5,50.5 173.5,50.5C 172.99,53.3878 173.656,55.7211 175.5,57.5 Z M 132.5,53.5 C 133.5,53.5 134.5,53.5 135.5,53.5C 134.5,60.1667 133.5,60.1667 132.5,53.5 Z M 161.5,53.5 C 162.239,53.369 162.906,53.5357 163.5,54C 162.118,58.7055 161.451,58.5388 161.5,53.5 Z M 138.5,55.5 C 139.289,55.7828 139.956,56.2828 140.5,57C 139.184,57.5281 138.517,57.0281 138.5,55.5 Z"/></g>
<g><path style="opacity:0.637" fill="#343392" d="M 6.5,54.5 C 7.06273,52.6805 8.2294,51.3471 10,50.5C 12.3785,52.5902 13.7118,55.2568 14,58.5C 14.4974,55.854 14.6641,53.1873 14.5,50.5C 17.0444,50.1043 19.2111,50.771 21,52.5C 24.3388,49.7006 27.3388,50.0339 30,53.5C 30.4828,52.552 30.6495,51.552 30.5,50.5C 31.5,50.5 32.5,50.5 33.5,50.5C 33.1718,59.6477 34.1718,59.8144 36.5,51C 37.5,50.3333 38.5,50.3333 39.5,51C 40.3295,52.8161 41.1628,54.6494 42,56.5C 42.1107,52.0466 44.2774,50.2133 48.5,51C 49.731,52.1827 49.731,53.3493 48.5,54.5C 46.1052,53.4775 45.1052,54.4775 45.5,57.5C 46.8333,57.5 48.1667,57.5 49.5,57.5C 49.67,58.8221 49.3366,59.9887 48.5,61C 46.074,60.9521 43.7407,61.1188 41.5,61.5C 40.1667,60.5 38.8333,59.5 37.5,58.5C 36.6143,59.325 36.281,60.325 36.5,61.5C 33.4532,62.1446 31.2865,61.1446 30,58.5C 28.8549,59.6364 27.6883,60.6364 26.5,61.5C 24.326,61.0798 22.326,61.0798 20.5,61.5C 19.2011,60.91 18.3678,59.91 18,58.5C 17.5212,60.646 16.1879,61.646 14,61.5C 12.1131,61.0314 10.6131,60.0314 9.5,58.5C 8.57481,59.3569 7.90814,60.3569 7.5,61.5C 6.83333,61.1667 6.16667,60.8333 5.5,60.5C 4.83333,60.8333 4.16667,61.1667 3.5,61.5C 3.16667,61.5 2.83333,61.5 2.5,61.5C 1.60895,60.8902 0.608953,60.5569 -0.5,60.5C -0.5,57.5 -0.5,54.5 -0.5,51.5C 3.18251,49.6588 5.51585,50.6588 6.5,54.5 Z M 6.5,54.5 C 6.5,55.5 6.5,56.5 6.5,57.5C 4.83333,57.5 3.16667,57.5 1.5,57.5C 1.49579,53.6696 3.16245,52.6696 6.5,54.5 Z M 24.5,53.5 C 26.9118,53.6941 27.9118,55.0274 27.5,57.5C 26.5,57.5 25.5,57.5 24.5,57.5C 24.5,56.1667 24.5,54.8333 24.5,53.5 Z"/></g>
<g><path style="opacity:0.694" fill="#313192" d="M 58.5,60.5 C 57.609,61.1098 56.609,61.4431 55.5,61.5C 53.7151,61.0744 52.7151,59.9078 52.5,58C 52.8613,55.551 53.528,53.2177 54.5,51C 56.9563,50.0539 58.9563,50.5539 60.5,52.5C 60.2907,53.086 59.9574,53.586 59.5,54C 61.1355,55.434 62.1355,57.2674 62.5,59.5C 61.5629,61.6424 60.2296,61.9757 58.5,60.5 Z"/></g>
<g><path style="opacity:0.711" fill="#2c2e8d" d="M 67.5,50.5 C 69.4672,50.2606 71.3005,50.5939 73,51.5C 73.8214,54.5541 73.6548,57.5541 72.5,60.5C 68.3049,61.8996 65.6382,60.3996 64.5,56C 65.1242,53.9149 66.1242,52.0816 67.5,50.5 Z"/></g>
<g><path style="opacity:0.299" fill="#000000" d="M 58.5,60.5 C 58.4142,61.4959 58.7476,62.3292 59.5,63C 60.7659,63.3095 61.9326,63.8095 63,64.5C 65.3806,63.565 67.8806,63.2317 70.5,63.5C 70.5,65.1667 70.5,66.8333 70.5,68.5C 69.1667,68.5 67.8333,68.5 66.5,68.5C 65.4523,66.0673 64.7856,66.0673 64.5,68.5C 61.1667,68.5 57.8333,68.5 54.5,68.5C 53.0623,65.9165 53.3956,63.5832 55.5,61.5C 56.609,61.4431 57.609,61.1098 58.5,60.5 Z M 55.5,65.5 C 56.3864,64.2241 57.3864,64.2241 58.5,65.5C 57.5754,66.5624 56.5754,66.5624 55.5,65.5 Z"/></g>
<g><path style="opacity:0.317" fill="#010101" d="M 5.5,60.5 C 6.16667,60.8333 6.83333,61.1667 7.5,61.5C 8.88533,62.6138 10.3853,63.6138 12,64.5C 15.6218,63.6543 19.4551,63.6543 23.5,64.5C 24.3629,65.7264 24.3629,67.0597 23.5,68.5C 22.1667,68.5 20.8333,68.5 19.5,68.5C 19.1667,67.1667 18.8333,67.1667 18.5,68.5C 15.5,68.5 12.5,68.5 9.5,68.5C 9.16667,67.1667 8.83333,67.1667 8.5,68.5C 7.83333,68.5 7.16667,68.5 6.5,68.5C 6.16667,67.1667 5.83333,67.1667 5.5,68.5C 4.83333,68.5 4.16667,68.5 3.5,68.5C 3.16667,67.1667 2.83333,67.1667 2.5,68.5C 1.5,68.5 0.5,68.5 -0.5,68.5C -0.5,66.1667 -0.5,63.8333 -0.5,61.5C 0.458694,65.3615 1.45869,65.3615 2.5,61.5C 2.83333,61.5 3.16667,61.5 3.5,61.5C 4.98807,64.1864 5.65473,63.8531 5.5,60.5 Z"/></g>
<g><path style="opacity:0.328" fill="#000000" d="M 26.5,61.5 C 28.6746,61.6822 30.6746,62.3489 32.5,63.5C 34.1047,62.5697 35.6047,62.5697 37,63.5C 38.4177,60.999 39.4177,61.3323 40,64.5C 43.2209,64.3897 46.5542,63.723 50,62.5C 52.8249,63.5842 52.9915,64.7508 50.5,66C 51.3805,66.7083 52.0472,67.5416 52.5,68.5C 51.5,68.5 50.5,68.5 49.5,68.5C 49.1667,64.5 48.8333,64.5 48.5,68.5C 47.8333,68.5 47.1667,68.5 46.5,68.5C 46.1667,64.5 45.8333,64.5 45.5,68.5C 40.5,68.5 35.5,68.5 30.5,68.5C 29.5,65.8333 28.5,65.8333 27.5,68.5C 26.8333,68.5 26.1667,68.5 25.5,68.5C 25.298,66.0504 25.6314,63.717 26.5,61.5 Z"/></g>
<g><path style="opacity:0.268" fill="#000000" d="M 74.5,61.5 C 75.1834,63.1765 76.5168,63.8432 78.5,63.5C 78.5,65.1667 78.5,66.8333 78.5,68.5C 76.5,68.5 74.5,68.5 72.5,68.5C 71.9898,65.6122 72.6565,63.2789 74.5,61.5 Z"/></g>
<g><path style="opacity:0.337" fill="#040808" d="M 83.5,60.5 C 83.4614,61.7562 83.9614,62.7562 85,63.5C 86.4139,62.5868 87.9139,62.5868 89.5,63.5C 89.2786,64.7348 88.6119,65.7348 87.5,66.5C 88.2427,67.1818 88.9094,67.8485 89.5,68.5C 87.8333,68.5 86.1667,68.5 84.5,68.5C 83.8333,67.1667 83.1667,67.1667 82.5,68.5C 81.8333,68.5 81.1667,68.5 80.5,68.5C 80.767,66.0347 81.4336,63.7014 82.5,61.5C 82.5,60.8333 82.8333,60.5 83.5,60.5 Z"/></g>
<g><path style="opacity:0.323" fill="#0a0a0a" d="M 90.5,60.5 C 92.1667,60.5 93.8333,60.5 95.5,60.5C 96.1667,60.5 96.5,60.8333 96.5,61.5C 97.1047,63.0257 98.2714,64.0257 100,64.5C 103.669,62.9907 105.169,64.3241 104.5,68.5C 102.167,68.5 99.8333,68.5 97.5,68.5C 97.1667,64.5 96.8333,64.5 96.5,68.5C 96.1667,68.5 95.8333,68.5 95.5,68.5C 94.8333,63.1667 94.1667,63.1667 93.5,68.5C 92.8333,68.5 92.1667,68.5 91.5,68.5C 91.8799,66.302 91.2132,64.6354 89.5,63.5C 90.1098,62.609 90.4431,61.609 90.5,60.5 Z"/></g>
<g><path style="opacity:0.339" fill="#000000" d="M 106.5,61.5 C 107.931,61.8807 108.764,62.8807 109,64.5C 109.513,63.4734 110.013,62.4734 110.5,61.5C 110.833,61.5 111.167,61.5 111.5,61.5C 111.351,62.552 111.517,63.552 112,64.5C 114.719,63.5562 117.552,63.2229 120.5,63.5C 120.5,65.1667 120.5,66.8333 120.5,68.5C 117.833,68.5 115.167,68.5 112.5,68.5C 112.167,67.1667 111.833,67.1667 111.5,68.5C 110.833,68.5 110.167,68.5 109.5,68.5C 109.167,65.8333 108.833,65.8333 108.5,68.5C 107.833,68.5 107.167,68.5 106.5,68.5C 106.5,66.1667 106.5,63.8333 106.5,61.5 Z"/></g>
<g><path style="opacity:0.326" fill="#000000" d="M 132.5,61.5 C 132.833,61.5 133.167,61.5 133.5,61.5C 134.548,63.9327 135.214,63.9327 135.5,61.5C 136.5,61.5 137.5,61.5 138.5,61.5C 138.326,63.861 137.993,66.1944 137.5,68.5C 136.833,68.5 136.167,68.5 135.5,68.5C 135.167,67.1667 134.833,67.1667 134.5,68.5C 132.833,68.5 131.167,68.5 129.5,68.5C 129.338,66.4727 129.505,64.4727 130,62.5C 130.671,61.7476 131.504,61.4142 132.5,61.5 Z M 133.5,61.5 C 134.167,61.5 134.833,61.5 135.5,61.5C 135.214,63.9327 134.548,63.9327 133.5,61.5 Z M 131.5,64.5 C 133.973,64.9473 134.14,65.9473 132,67.5C 131.517,66.552 131.351,65.552 131.5,64.5 Z"/></g>
<g><path style="opacity:0.314" fill="#000000" d="M 141.5,61.5 C 142.167,61.5 142.833,61.5 143.5,61.5C 144.728,66.6598 145.395,66.6598 145.5,61.5C 146.5,61.5 147.5,61.5 148.5,61.5C 149.468,63.6074 149.802,65.9407 149.5,68.5C 147.5,68.5 145.5,68.5 143.5,68.5C 142.833,67.1667 142.167,67.1667 141.5,68.5C 140.833,68.5 140.167,68.5 139.5,68.5C 140.167,66.1667 140.833,63.8333 141.5,61.5 Z"/></g>
<g><path style="opacity:0.334" fill="#050505" d="M 155.5,60.5 C 156.5,64.5 157.5,64.5 158.5,60.5C 159.167,60.5 159.5,60.8333 159.5,61.5C 160.183,63.1765 161.517,63.8432 163.5,63.5C 163.5,65.1667 163.5,66.8333 163.5,68.5C 162.167,68.5 160.833,68.5 159.5,68.5C 159.167,67.1667 158.833,67.1667 158.5,68.5C 156.5,68.5 154.5,68.5 152.5,68.5C 152.131,66.5588 151.464,64.7255 150.5,63C 152.194,61.2723 153.361,61.7723 154,64.5C 154.483,63.552 154.649,62.552 154.5,61.5C 154.5,60.8333 154.833,60.5 155.5,60.5 Z"/></g>
<g><path style="opacity:0.322" fill="#000000" d="M 167.5,61.5 C 168.167,61.5 168.833,61.5 169.5,61.5C 170.469,62.3094 171.302,63.3094 172,64.5C 173.011,63.6634 174.178,63.33 175.5,63.5C 175.5,65.1667 175.5,66.8333 175.5,68.5C 172.167,68.5 168.833,68.5 165.5,68.5C 165.338,66.4727 165.505,64.4727 166,62.5C 166.383,61.944 166.883,61.6107 167.5,61.5 Z"/></g>
<g><path style="opacity:0.375" fill="#000000" d="M 127.5,68.5 C 126.5,68.5 125.5,68.5 124.5,68.5C 123.833,64.5 123.167,64.5 122.5,68.5C 122.167,68.5 121.833,68.5 121.5,68.5C 121.5,66.8333 121.5,65.1667 121.5,63.5C 123.226,63.1854 124.893,63.0187 126.5,63C 126.69,64.8283 127.023,66.6616 127.5,68.5 Z"/></g>
</svg>
